%TF.GenerationSoftware,KiCad,Pcbnew,(5.1.6)-1*%
%TF.CreationDate,2020-07-14T15:19:12+02:00*%
%TF.ProjectId,LED Project,4c454420-5072-46f6-9a65-63742e6b6963,rev?*%
%TF.SameCoordinates,Original*%
%TF.FileFunction,Legend,Top*%
%TF.FilePolarity,Positive*%
%FSLAX46Y46*%
G04 Gerber Fmt 4.6, Leading zero omitted, Abs format (unit mm)*
G04 Created by KiCad (PCBNEW (5.1.6)-1) date 2020-07-14 15:19:12*
%MOMM*%
%LPD*%
G01*
G04 APERTURE LIST*
%ADD10C,0.120000*%
%ADD11C,0.100000*%
%ADD12C,0.150000*%
G04 APERTURE END LIST*
D10*
%TO.C,R1*%
X134710000Y-87741422D02*
X134710000Y-88258578D01*
X133290000Y-87741422D02*
X133290000Y-88258578D01*
%TO.C,J1*%
X143735000Y-90620000D02*
X137715000Y-90620000D01*
X137715000Y-90620000D02*
X137715000Y-95920000D01*
X137715000Y-95920000D02*
X143735000Y-95920000D01*
X143735000Y-95920000D02*
X143735000Y-90620000D01*
X142705000Y-90330000D02*
X138705000Y-90330000D01*
X137715000Y-92000000D02*
X138715000Y-92000000D01*
X138715000Y-92000000D02*
X138715000Y-94540000D01*
X138715000Y-94540000D02*
X137715000Y-94540000D01*
X138715000Y-92000000D02*
X139245000Y-92250000D01*
X139245000Y-92250000D02*
X139245000Y-94290000D01*
X139245000Y-94290000D02*
X138715000Y-94540000D01*
X137715000Y-92250000D02*
X138715000Y-92250000D01*
X137715000Y-94290000D02*
X138715000Y-94290000D01*
X143735000Y-91200000D02*
X143135000Y-91200000D01*
X143135000Y-91200000D02*
X143135000Y-92800000D01*
X143135000Y-92800000D02*
X143735000Y-92800000D01*
X143735000Y-93740000D02*
X143135000Y-93740000D01*
X143135000Y-93740000D02*
X143135000Y-95340000D01*
X143135000Y-95340000D02*
X143735000Y-95340000D01*
D11*
%TO.C,D1*%
G36*
X134800000Y-99600000D02*
G01*
X134800000Y-100100000D01*
X133200000Y-100100000D01*
X133200000Y-99600000D01*
X134800000Y-99600000D01*
G37*
X134800000Y-99600000D02*
X134800000Y-100100000D01*
X133200000Y-100100000D01*
X133200000Y-99600000D01*
X134800000Y-99600000D01*
D10*
X134800000Y-96400000D02*
X134800000Y-100100000D01*
X133200000Y-96400000D02*
X134800000Y-96400000D01*
X133200000Y-100100000D02*
X133200000Y-96400000D01*
%TO.C,R1*%
D12*
X136102380Y-88166666D02*
X135626190Y-88500000D01*
X136102380Y-88738095D02*
X135102380Y-88738095D01*
X135102380Y-88357142D01*
X135150000Y-88261904D01*
X135197619Y-88214285D01*
X135292857Y-88166666D01*
X135435714Y-88166666D01*
X135530952Y-88214285D01*
X135578571Y-88261904D01*
X135626190Y-88357142D01*
X135626190Y-88738095D01*
X136102380Y-87214285D02*
X136102380Y-87785714D01*
X136102380Y-87500000D02*
X135102380Y-87500000D01*
X135245238Y-87595238D01*
X135340476Y-87690476D01*
X135388095Y-87785714D01*
%TO.C,J1*%
X144277380Y-93603333D02*
X144991666Y-93603333D01*
X145134523Y-93650952D01*
X145229761Y-93746190D01*
X145277380Y-93889047D01*
X145277380Y-93984285D01*
X145277380Y-92603333D02*
X145277380Y-93174761D01*
X145277380Y-92889047D02*
X144277380Y-92889047D01*
X144420238Y-92984285D01*
X144515476Y-93079523D01*
X144563095Y-93174761D01*
%TO.C,D1*%
X132852380Y-98738095D02*
X131852380Y-98738095D01*
X131852380Y-98500000D01*
X131900000Y-98357142D01*
X131995238Y-98261904D01*
X132090476Y-98214285D01*
X132280952Y-98166666D01*
X132423809Y-98166666D01*
X132614285Y-98214285D01*
X132709523Y-98261904D01*
X132804761Y-98357142D01*
X132852380Y-98500000D01*
X132852380Y-98738095D01*
X132852380Y-97214285D02*
X132852380Y-97785714D01*
X132852380Y-97500000D02*
X131852380Y-97500000D01*
X131995238Y-97595238D01*
X132090476Y-97690476D01*
X132138095Y-97785714D01*
%TD*%
M02*
