%TF.GenerationSoftware,KiCad,Pcbnew,(5.1.6)-1*%
%TF.CreationDate,2020-07-14T15:19:12+02:00*%
%TF.ProjectId,LED Project,4c454420-5072-46f6-9a65-63742e6b6963,rev?*%
%TF.SameCoordinates,Original*%
%TF.FileFunction,Copper,L1,Top*%
%TF.FilePolarity,Positive*%
%FSLAX46Y46*%
G04 Gerber Fmt 4.6, Leading zero omitted, Abs format (unit mm)*
G04 Created by KiCad (PCBNEW (5.1.6)-1) date 2020-07-14 15:19:12*
%MOMM*%
%LPD*%
G01*
G04 APERTURE LIST*
%TA.AperFunction,ComponentPad*%
%ADD10O,2.190000X1.740000*%
%TD*%
%TA.AperFunction,SMDPad,CuDef*%
%ADD11R,0.800000X0.800000*%
%TD*%
%TA.AperFunction,ViaPad*%
%ADD12C,0.800000*%
%TD*%
%TA.AperFunction,Conductor*%
%ADD13C,0.250000*%
%TD*%
G04 APERTURE END LIST*
%TO.P,R1,2*%
%TO.N,/DIODE*%
%TA.AperFunction,SMDPad,CuDef*%
G36*
G01*
X133543750Y-88450000D02*
X134456250Y-88450000D01*
G75*
G02*
X134700000Y-88693750I0J-243750D01*
G01*
X134700000Y-89181250D01*
G75*
G02*
X134456250Y-89425000I-243750J0D01*
G01*
X133543750Y-89425000D01*
G75*
G02*
X133300000Y-89181250I0J243750D01*
G01*
X133300000Y-88693750D01*
G75*
G02*
X133543750Y-88450000I243750J0D01*
G01*
G37*
%TD.AperFunction*%
%TO.P,R1,1*%
%TO.N,+3V3*%
%TA.AperFunction,SMDPad,CuDef*%
G36*
G01*
X133543750Y-86575000D02*
X134456250Y-86575000D01*
G75*
G02*
X134700000Y-86818750I0J-243750D01*
G01*
X134700000Y-87306250D01*
G75*
G02*
X134456250Y-87550000I-243750J0D01*
G01*
X133543750Y-87550000D01*
G75*
G02*
X133300000Y-87306250I0J243750D01*
G01*
X133300000Y-86818750D01*
G75*
G02*
X133543750Y-86575000I243750J0D01*
G01*
G37*
%TD.AperFunction*%
%TD*%
D10*
%TO.P,J1,2*%
%TO.N,GND*%
X140705000Y-94540000D03*
%TO.P,J1,1*%
%TO.N,+3V3*%
%TA.AperFunction,ComponentPad*%
G36*
G01*
X139859999Y-91130000D02*
X141550001Y-91130000D01*
G75*
G02*
X141800000Y-91379999I0J-249999D01*
G01*
X141800000Y-92620001D01*
G75*
G02*
X141550001Y-92870000I-249999J0D01*
G01*
X139859999Y-92870000D01*
G75*
G02*
X139610000Y-92620001I0J249999D01*
G01*
X139610000Y-91379999D01*
G75*
G02*
X139859999Y-91130000I249999J0D01*
G01*
G37*
%TD.AperFunction*%
%TD*%
D11*
%TO.P,D1,A*%
%TO.N,/DIODE*%
X134000000Y-97175000D03*
%TO.P,D1,C*%
%TO.N,GND*%
X134000000Y-98825000D03*
%TD*%
D12*
%TO.N,GND*%
X136300000Y-98800000D03*
%TD*%
D13*
%TO.N,/DIODE*%
X134000000Y-88937500D02*
X134000000Y-97175000D01*
%TO.N,GND*%
X134000000Y-98825000D02*
X136275000Y-98825000D01*
X136275000Y-98825000D02*
X136300000Y-98800000D01*
%TO.N,+3V3*%
X134000000Y-86150000D02*
X134000000Y-87062500D01*
X139500000Y-85200000D02*
X134950000Y-85200000D01*
X140705000Y-92000000D02*
X140705000Y-86405000D01*
X134950000Y-85200000D02*
X134000000Y-86150000D01*
X140705000Y-86405000D02*
X139500000Y-85200000D01*
%TD*%
M02*
